<?xml version="1.0" encoding="UTF-8"?>
<svg version="1.1" xmlns="http://www.w3.org/2000/svg" width="2000" height="1671">
<path d="M0 0 C0.94939453 0.04108887 1.89878906 0.08217773 2.87695312 0.12451172 C33.76259046 1.62843277 66.68823779 6.46837072 89 30 C100.47446864 43.42804745 104.18655901 60.69130587 103 78 C98.60186038 120.74409446 74.31049479 160.77028728 48.46777344 194.08789062 C46.95635564 196.05685673 45.47836332 198.04723204 44.0078125 200.046875 C38.2279637 207.89624927 32.21110651 215.42256376 25.80078125 222.765625 C23.29319679 225.64064908 20.88704125 228.58622515 18.5 231.5625 C14.65719092 236.29963555 10.59483041 240.78784231 6.42382812 245.23461914 C3.81704774 248.01521453 1.26531143 250.82927275 -1.22998047 253.71069336 C-4.840335 257.8441006 -8.54855895 261.87358205 -12.3125 265.8671875 C-13.34129272 266.95904861 -13.34129272 266.95904861 -14.39086914 268.07296753 C-21.70329088 275.7963675 -29.19031301 283.34179719 -36.72119141 290.8515625 C-39.03016236 293.15509127 -41.33362777 295.46403136 -43.63671875 297.7734375 C-45.13249141 299.26855047 -46.62857364 300.76335381 -48.125 302.2578125 C-48.79909912 302.93393585 -49.47319824 303.6100592 -50.16772461 304.30667114 C-54.08683243 308.20672876 -58.11309923 311.92396892 -62.30712891 315.52731323 C-64.30247163 317.26313047 -66.16338444 319.09779102 -68 321 C-71.10713922 324.14920881 -74.32490304 327.07976967 -77.6796875 329.9609375 C-80.04047336 332.03556749 -82.3395235 334.16495872 -84.63623047 336.30981445 C-90.01873495 341.33562806 -95.50769262 346.11067346 -101.25390625 350.72265625 C-104.26320269 353.21827478 -107.13920076 355.83784189 -110 358.5 C-114.52849521 362.70906681 -119.19976451 366.67443112 -124.015625 370.55078125 C-127.5927663 373.48647182 -131.07734259 376.51874373 -134.5625 379.5625 C-139.39109538 383.77115131 -144.2601766 387.89099732 -149.29296875 391.85546875 C-152.11121295 394.08810377 -154.89931424 396.35474833 -157.68505859 398.62768555 C-163.69086911 403.52791 -169.7204341 408.39478519 -175.8125 413.1875 C-176.39290039 413.64487549 -176.97330078 414.10225098 -177.57128906 414.57348633 C-180.00058312 416.47740022 -182.43012991 418.28675327 -185 420 C-185.45369458 421.88298698 -185.45369458 421.88298698 -185.38196754 424.08517551 C-185.39080739 424.94545622 -185.39964723 425.80573693 -185.40875494 426.69208676 C-185.40322525 427.64275223 -185.39769555 428.59341771 -185.39199829 429.57289124 C-185.39793955 430.5784484 -185.40388081 431.58400556 -185.41000211 432.62003416 C-185.42639654 436.01120415 -185.42133047 439.40201146 -185.41650391 442.79321289 C-185.42387795 445.21550418 -185.43258107 447.63779173 -185.44252014 450.06007385 C-185.46106581 455.28642567 -185.47048381 460.51271079 -185.47182083 465.73909187 C-185.47385687 473.29670227 -185.49329665 480.85418967 -185.51721875 488.41175883 C-185.55565078 500.67398843 -185.58144402 512.93620972 -185.59863281 525.19848633 C-185.61536977 537.10963101 -185.63554721 549.02075759 -185.66210938 560.93188477 C-185.6637428 561.66559483 -185.66537622 562.39930489 -185.66705914 563.15524859 C-185.68501377 571.15938032 -185.70435909 579.16350779 -185.72536278 587.1676321 C-185.72812491 588.22177584 -185.72812491 588.22177584 -185.73094284 589.29721541 C-185.73832129 592.10597509 -185.7457147 594.91473471 -185.75328664 597.72349387 C-185.77545511 605.95975007 -185.79324435 614.19598854 -185.80323945 622.43226897 C-185.81035677 628.20443006 -185.82204548 633.97657421 -185.83537102 639.74872398 C-185.83994814 642.1235998 -185.84278091 644.49847967 -185.84379387 646.87335968 C-185.8453538 650.10029816 -185.85290118 653.32716765 -185.86196899 656.55409241 C-185.86036662 657.98343671 -185.86036662 657.98343671 -185.85873187 659.44165665 C-185.88596417 665.88596417 -185.88596417 665.88596417 -187 667 C-188.97197538 667.09887812 -190.9475444 667.12632256 -192.92199707 667.12698364 C-194.20929214 667.12980347 -195.49658722 667.13262329 -196.82289124 667.13552856 C-198.262787 667.13358396 -199.70268264 667.13153578 -201.14257812 667.12939453 C-202.64847354 667.13074851 -204.15436861 667.13252843 -205.66026306 667.13470459 C-209.76138807 667.13927928 -213.86248804 667.13748922 -217.96361351 667.1343255 C-222.24596603 667.13180209 -226.52831634 667.13413939 -230.81066895 667.13571167 C-238.00350328 667.13753342 -245.19632737 667.13512692 -252.38916016 667.13037109 C-260.71716334 667.12492846 -269.04514204 667.12669112 -277.37314463 667.1321975 C-284.51027846 667.13672848 -291.6474049 667.13737925 -298.7845397 667.13475883 C-303.05298355 667.13319597 -307.32141588 667.13300253 -311.58985901 667.13629532 C-315.60183934 667.13917381 -319.61378796 667.13719875 -323.62576485 667.13140106 C-325.10244761 667.13007334 -326.57913302 667.13046778 -328.05581474 667.13266373 C-330.06320987 667.13537474 -332.07061079 667.13138084 -334.07800293 667.12698364 C-335.20405693 667.12660662 -336.33011093 667.12622959 -337.49028778 667.12584114 C-340 667 -340 667 -341 666 C-341.08847743 663.47905924 -341.11527301 660.98569107 -341.09765625 658.46484375 C-341.0962413 657.71159317 -341.09482635 656.95834259 -341.09336853 656.18226624 C-341.08775376 653.7673044 -341.07519883 651.35243399 -341.0625 648.9375 C-341.0574869 647.30403779 -341.05292366 645.67057414 -341.04882812 644.03710938 C-341.03777954 640.02470415 -341.02050506 636.01236759 -341 632 C-342.02472412 632.00523682 -343.04944824 632.01047363 -344.10522461 632.01586914 C-347.89395276 632.03391969 -351.68267709 632.0454322 -355.47143555 632.05493164 C-357.11369464 632.05997174 -358.75594923 632.06680378 -360.39819336 632.07543945 C-362.75375479 632.08751926 -365.10925709 632.09323139 -367.46484375 632.09765625 C-368.20339096 632.10281754 -368.94193817 632.10797882 -369.7028656 632.11329651 C-371.46898088 632.1134925 -373.23497146 632.06194719 -375 632 C-376.91385412 630.08614588 -376.17529197 626.6289211 -376.20532227 624.09350586 C-376.21522186 623.37159561 -376.22512146 622.64968536 -376.23532104 621.90589905 C-376.26702299 619.50891449 -376.29172759 617.11191008 -376.31640625 614.71484375 C-376.33696829 613.05716931 -376.35796455 611.3995002 -376.37937927 609.74183655 C-376.4346775 605.37051705 -376.48405244 600.99914963 -376.53222656 596.62774658 C-376.58238516 592.17040726 -376.6381006 587.71313787 -376.69335938 583.25585938 C-376.80103568 574.5039653 -376.90245945 565.75201288 -377 557 C-390.93327187 565.78930534 -390.93327187 565.78930534 -404.83496094 574.62841797 C-411.79056175 579.06893129 -418.74768318 583.50839805 -425.75 587.875 C-426.73484375 588.49117187 -427.7196875 589.10734375 -428.734375 589.7421875 C-431 591 -431 591 -433 591 C-432.99777939 591.9373851 -432.99555878 592.8747702 -432.99327087 593.84056091 C-432.97303857 602.65521785 -432.95802744 611.4698701 -432.94818783 620.28454494 C-432.94295922 624.81674094 -432.93586199 629.34891827 -432.92456055 633.88110352 C-432.91373086 638.2512283 -432.90772299 642.62133508 -432.90512276 646.99147224 C-432.90326865 648.66250963 -432.89964832 650.33354597 -432.89426994 652.00457573 C-432.88705841 654.33697551 -432.8860091 656.66929993 -432.88647461 659.00170898 C-432.88287933 659.6994191 -432.87928406 660.39712921 -432.87557983 661.11598206 C-432.88594784 665.88594784 -432.88594784 665.88594784 -434 667 C-436.96865415 667.03476938 -439.91374663 667.00534312 -442.88061523 666.93554688 C-444.81805397 666.89942788 -446.75550932 666.86419276 -448.69297791 666.82971191 C-449.72840162 666.81044144 -450.76382534 666.79117096 -451.83062553 666.77131653 C-458.50327434 666.66265437 -465.17680299 666.63231652 -471.85015774 666.59247589 C-477.69142731 666.55328456 -483.52908763 666.48429479 -489.36889648 666.34521484 C-526.50072932 665.13638512 -526.50072932 665.13638512 -557.6973114 682.97637939 C-561.08218972 685.95103672 -564.79401526 688.2745705 -568.625 690.625 C-569.96648361 691.48703674 -571.30652584 692.35132442 -572.64453125 693.21875 C-600.30408239 710.93119068 -628.39394264 727.86879592 -657 744 C-658.58675537 744.8986377 -658.58675537 744.8986377 -660.20556641 745.81542969 C-686.85496665 760.90690638 -713.92187684 775.16901648 -741.20050049 789.08203125 C-742.8501265 789.92354586 -744.49907211 790.76639393 -746.14794922 791.609375 C-761.57571724 799.48063124 -777.241609 806.81842316 -793 814 C-793.69929626 814.31924438 -794.39859253 814.63848877 -795.11907959 814.96740723 C-833.49802547 832.48166417 -872.341711 848.60608428 -912 863 C-912.77776794 863.2827478 -913.55553589 863.56549561 -914.35687256 863.85681152 C-997.15324828 893.91919988 -1083.74147756 918.15854324 -1194 925 C-1194.82048828 925.02336426 -1195.64097656 925.04672852 -1196.48632812 925.07080078 C-1241.90919011 926.15446569 -1299.93154693 922.60011609 -1337 893 C-1336.70985788 889.51829452 -1336.27243676 888.25771045 -1333.6875 885.8125 C-1329.15680599 882.75691567 -1326.58624606 881.49577827 -1321 882 C-1318.62742515 883.25146805 -1316.52362061 884.51358545 -1314.3125 886 C-1293.84291165 898.92479014 -1269.71608112 905.20254824 -1246 909 C-1244.6073291 909.22647217 -1244.6073291 909.22647217 -1243.18652344 909.45751953 C-1207.42051972 914.95587533 -1169.82846863 913.27192407 -1134 909 C-1133.29260681 908.9175 -1132.58521362 908.835 -1131.85638428 908.75 C-1037.66650306 897.73580728 -945.29300943 868.39766443 -800.328125 807.52587891 C-797.06741859 806.03091008 -793.79960973 804.55236397 -790.53125 803.07421875 C-773.62287711 795.36059425 -756.98555956 787.09857086 -740.35800552 778.80171585 C-738.53213691 777.8910289 -736.70563274 776.98162798 -734.8789978 776.07247925 C-720.25664561 768.78621271 -705.78627523 761.29142179 -691.495224 753.37446594 C-687.85583276 751.3697484 -684.19815837 749.39933589 -680.54083252 747.42758179 C-668.96290165 741.18492972 -657.60150322 734.59542441 -646.26904297 727.91992188 C-642.81161843 725.88936276 -639.34615736 723.87308228 -635.87890625 721.859375 C-620.39963364 712.8597589 -605.11038308 703.61056686 -590 694 C-588.93700684 693.32517578 -587.87401367 692.65035156 -586.77880859 691.95507812 C-574.42710731 684.10703935 -562.12185669 676.19949981 -550 668 C-560.09246763 666.92597051 -566.37634311 669.53064585 -575 674.5625 C-576.21910179 675.24807119 -577.43976241 675.93087687 -578.66186523 676.61108398 C-581.19337839 678.02300931 -583.7178518 679.44643626 -586.23779297 680.87890625 C-592.12241597 684.21219269 -598.09490691 687.38070558 -604.0625 690.5625 C-605.21951416 691.18261963 -606.37652832 691.80273926 -607.56860352 692.44165039 C-618.87006141 698.49226011 -630.24854098 704.38976768 -641.64306641 710.26269531 C-644.90776515 711.95226595 -648.16394921 713.65715438 -651.41796875 715.3671875 C-683.4832492 732.17005804 -716.05521373 748.14222683 -749.02185059 763.10076904 C-751.23892722 764.10861199 -753.45404026 765.12069447 -755.66894531 766.13330078 C-838.92141709 804.18365079 -924.141564 839.09623035 -1196 899 C-1196.72687012 899.02336426 -1197.45374023 899.04672852 -1198.20263672 899.07080078 C-1232.52632058 900.00397839 -1271.2336483 896.80142533 -1298.375 873.625 C-1311.13378505 861.50725602 -1316.8285444 845.90223694 -1317.3125 828.5 C-1316.59710333 793.78443537 -1300.34036483 761.68998165 -1282 733 C-1281.57509277 732.33355469 -1281.15018555 731.66710938 -1280.71240234 730.98046875 C-1268.34106308 711.71981849 -1254.48232148 693.47124779 -1239.61328125 676.08203125 C-1237.20918687 673.26364971 -1234.88232006 670.38828047 -1232.5625 667.5 C-1228.69609833 662.7450895 -1224.61471132 658.23338355 -1220.42407227 653.765625 C-1217.80607296 650.97309241 -1215.24287082 648.14668606 -1212.73510742 645.25439453 C-1201.54335764 632.44162985 -1189.5400155 620.37806499 -1177.49975586 608.36938477 C-1175.03706613 605.91212218 -1172.57985798 603.44946683 -1170.12304688 600.98632812 C-1168.531571 599.39551213 -1166.93978546 597.80500587 -1165.34765625 596.21484375 C-1164.62667252 595.49183578 -1163.90568878 594.76882782 -1163.16285706 594.02391052 C-1159.1687968 590.04805041 -1155.08475764 586.24393502 -1150.79832458 582.58424377 C-1148.95249998 580.9581546 -1147.2218367 579.25615044 -1145.5 577.5 C-1142.57869212 574.53284199 -1139.52008327 571.79941029 -1136.3671875 569.08203125 C-1133.36277451 566.439536 -1130.43265928 563.72159827 -1127.5 561 C-1122.73377807 556.58488097 -1117.93152568 552.23077602 -1113 548 C-1112.27224365 547.37472412 -1112.27224365 547.37472412 -1111.52978516 546.73681641 C-1107.97379928 543.68200262 -1104.4130677 540.63276568 -1100.85107422 537.58496094 C-1099.04658148 536.03988485 -1097.24368504 534.49297021 -1095.44140625 532.9453125 C-1092.5310502 530.44621122 -1089.61789106 527.95041663 -1086.70263672 525.45703125 C-1085.58374887 524.49954306 -1084.46556287 523.54123399 -1083.34814453 522.58203125 C-1076.85016626 517.00731634 -1070.26517337 511.58553947 -1063.50512695 506.33129883 C-1058.82554669 502.68236712 -1054.25073306 498.91797265 -1049.6875 495.125 C-1043.32999508 489.85012933 -1036.8552636 484.76504882 -1030.26806641 479.78076172 C-1024.6438164 475.51893214 -1019.12290905 471.13983061 -1013.64404297 466.69287109 C-1009.20153168 463.10076584 -1009.20153168 463.10076584 -1007 462 C-1006.67 455.73 -1006.34 449.46 -1006 443 C-1004.41574219 443.09023438 -1002.83148437 443.18046875 -1001.19921875 443.2734375 C-985.00488848 443.71403065 -976.31813962 440.57740249 -964.28369141 429.95166016 C-960.46219467 426.6857798 -956.35386198 423.83414505 -952.25 420.9375 C-950.81674726 419.90628236 -949.38440568 418.87379677 -947.953125 417.83984375 C-944.30789918 415.21838727 -940.65524167 412.60746951 -937 410 C-939.71011356 407.20519539 -942.46728862 404.57919523 -945.4375 402.0625 C-972.19349659 378.6321075 -990.31017504 349.02622035 -993 313 C-995.0130438 274.59639651 -985.11821468 241.43272496 -959.31982422 212.46484375 C-948.77293667 200.75908621 -936.61530091 191.83911265 -923 184 C-921.87335938 183.34257813 -920.74671875 182.68515625 -919.5859375 182.0078125 C-890.09449314 165.26491326 -854.07160131 156.95133147 -820.296875 156.796875 C-819.29779114 156.79117493 -818.29870728 156.78547485 -817.26934814 156.77960205 C-815.16167234 156.77020981 -813.05398223 156.76364125 -810.94628906 156.75976562 C-807.79985157 156.75015231 -804.65409474 156.719111 -801.5078125 156.6875 C-784.10087925 156.5963441 -766.97799628 158.20474723 -750 162.1875 C-749.10595459 162.39689209 -748.21190918 162.60628418 -747.29077148 162.82202148 C-723.1115713 168.75539908 -699.45449764 179.31579922 -680 195 C-679.41428223 195.46905762 -678.82856445 195.93811523 -678.22509766 196.42138672 C-668.04400926 204.65804746 -658.73969975 213.54050436 -651.3515625 224.44140625 C-649.81921511 226.40935132 -649.81921511 226.40935132 -646 228 C-638.74 224.04 -631.48 220.08 -624 216 C-623.67 198.18 -623.34 180.36 -623 162 C-615.64976562 162.07863281 -608.29953125 162.15726563 -600.7265625 162.23828125 C-596.0141076 162.25915041 -591.30226357 162.27610573 -586.58984375 162.27929688 C-579.14221147 162.28470267 -571.69649395 162.30303008 -564.24951172 162.40795898 C-526.86606076 163.72976735 -526.86606076 163.72976735 -493.24401855 149.52432251 C-490.14749447 147.42090792 -486.98841473 145.96328509 -483.56640625 144.44921875 C-482.56738281 143.98700928 -481.56835938 143.5247998 -480.5390625 143.04858398 C-479.55679688 142.59942627 -478.57453125 142.15026855 -477.5625 141.6875 C-476.43457031 141.16808838 -475.30664062 140.64867676 -474.14453125 140.11352539 C-471.71850618 138.99749478 -469.2917826 137.88316484 -466.86376953 136.77148438 C-463.45091575 135.20825146 -460.04224427 133.63607081 -456.63414001 132.06251526 C-438.5719451 123.7260887 -420.44153272 115.60221548 -402.10351562 107.88671875 C-399.79692543 106.91439568 -397.49209351 105.93798345 -395.1875 104.9609375 C-370.61761908 94.54763116 -345.95678086 84.45073941 -321 75 C-320.28193176 74.72776611 -319.56386353 74.45553223 -318.82403564 74.17504883 C-239.10664736 43.97707232 -157.42471884 17.24212563 0 0 Z M-271.93786621 83.29156494 C-273.92832183 83.97537535 -275.91967264 84.65652414 -277.91113281 85.33740234 C-334.24296616 104.6446402 -388.97525259 128.34381475 -443.08123779 153.12133789 C-444.97991693 153.99080332 -446.87884004 154.85973374 -448.77783203 155.72851562 C-455.52084091 158.81403817 -462.26191001 161.90375019 -469 165 C-469 167.64 -469 170.28 -469 173 C-463.9624164 171.48748961 -459.48230985 169.34869894 -454.82421875 166.95703125 C-453.19204011 166.12935154 -451.55970937 165.30197169 -449.92724609 164.47485352 C-448.64657257 163.82361008 -448.64657257 163.82361008 -447.34002686 163.15921021 C-429.08014914 153.88851663 -410.65503812 145.11247004 -391.92016602 136.84777832 C-390.0230779 136.01018919 -388.12757847 135.16909748 -386.23242188 134.32714844 C-317.61172836 103.88027815 -246.3124888 78.44652791 -173 62 C-172.34100708 61.85195923 -171.68201416 61.70391846 -171.00305176 61.5513916 C-114.86160778 49.01152221 -37.86283302 34.32390165 14 67 C16.74032445 68.91429363 19.4001337 70.89924843 22 73 C21.671875 74.890625 21.671875 74.890625 21 77 C17.36859315 79.31089527 14.28840992 80.94135828 10 80 C8.4263176 78.63158052 6.85843005 77.25593271 5.3203125 75.84765625 C-13.38175758 60.95526711 -40.75918333 56.58999866 -64 56 C-65.20317871 55.9693042 -65.20317871 55.9693042 -66.43066406 55.93798828 C-134.71379287 54.46205784 -202.56108228 72.18379097 -266.94903564 93.32873535 C-270.04458811 94.34188555 -273.14575111 95.33755876 -276.24609375 96.3359375 C-337.05882488 116.0802161 -396.16675272 142.27086826 -453.16943359 171.07666016 C-456.44159723 172.72714334 -459.7213677 174.36241654 -463 176 C-464.98 176.99 -466.96 177.98 -469 179 C-469 184.94 -469 190.88 -469 197 C-451.675 197.495 -451.675 197.495 -434 198 C-433.67 240.57 -433.34 283.14 -433 327 C-414.19 327 -395.38 327 -376 327 C-376 272.55 -376 218.1 -376 162 C-325.18 162 -274.36 162 -222 162 C-222 173.55 -222 185.1 -222 197 C-210.12 197 -198.24 197 -186 197 C-186 257.06 -186 317.12 -186 379 C-180.71366015 375.03524511 -175.63825804 371.08990316 -170.6875 366.75 C-170.04159912 366.18716309 -169.39569824 365.62432617 -168.73022461 365.04443359 C-163.90149935 360.82355752 -159.1435091 356.53105701 -154.4140625 352.19921875 C-151.6477299 349.6790808 -148.83454294 347.21809112 -146.01171875 344.76171875 C-138.46760882 338.15512928 -131.08119663 331.36733949 -123.70741272 324.57197571 C-122.61361698 323.56494307 -121.51877222 322.55904793 -120.42259216 321.55461121 C-109.57702703 311.60824917 -99.12835255 301.28303581 -88.73583984 290.86621094 C-85.97998645 288.10494716 -83.21875972 285.3491364 -80.45703125 282.59375 C-78.67936641 280.81542508 -76.90201141 279.03679037 -75.125 277.2578125 C-74.31135986 276.44619659 -73.49771973 275.63458069 -72.65942383 274.79837036 C-68.44871361 270.57046527 -64.38646264 266.2717794 -60.50265503 261.74076843 C-58.1221085 258.98299624 -55.61691934 256.34420553 -53.125 253.6875 C-48.63810543 248.86417577 -44.37710987 243.91844022 -40.25390625 238.77734375 C-38.2856864 236.35203298 -36.2668392 233.98202138 -34.22119141 231.62207031 C-26.31469193 222.46234622 -19.15630917 212.7497665 -12 203 C-11.4726123 202.28859863 -10.94522461 201.57719727 -10.40185547 200.84423828 C11.81049313 170.80585218 40.55973381 127.685729 34.70703125 88.01416016 C32.37393574 74.80269322 26.66804415 63.4513077 16 55 C6.89970517 48.84121461 -2.40194967 44.94765306 -13 42 C-14.04929687 41.70351563 -15.09859375 41.40703125 -16.1796875 41.1015625 C-91.40370016 22.52546157 -183.38883399 53.79467423 -271.93786621 83.29156494 Z M-624 245 C-624.99 246.485 -624.99 246.485 -626 248 C-624.515 248.99 -624.515 248.99 -623 250 C-623 248.35 -623 246.7 -623 245 C-623.33 245 -623.66 245 -624 245 Z M-757 339 C-754.09091772 340.93938819 -751.59137621 341.96774957 -748.3125 343.125 C-747.31863281 343.47820312 -746.32476563 343.83140625 -745.30078125 344.1953125 C-744.54152344 344.46085937 -743.78226563 344.72640625 -743 345 C-743 343.02 -743 341.04 -743 339 C-747.62 339 -752.24 339 -757 339 Z M-686 375 C-681.96127803 379.06351592 -681.96127803 379.06351592 -677.73046875 382.83203125 C-677.15578857 383.31607422 -676.5811084 383.80011719 -675.98901367 384.29882812 C-675.0972644 385.0480957 -675.0972644 385.0480957 -674.1875 385.8125 C-666.89998146 392.02301275 -660.35766199 398.00767631 -654.8125 405.875 C-650.58340225 411.6744881 -645.89422604 415.52425758 -640.15625 419.68359375 C-633.91717005 424.26252247 -628.46520068 429.53479932 -623 435 C-623 415.2 -623 395.4 -623 375 C-643.79 375 -664.58 375 -686 375 Z M-924.1875 437.4375 C-924.74630859 437.85837891 -925.30511719 438.27925781 -925.88085938 438.71289062 C-927.27733299 439.77857562 -928.64174155 440.88601749 -930 442 C-930 442.33 -930 442.66 -930 443 C-921.42 443 -912.84 443 -904 443 C-913.1462329 432.8513742 -913.1462329 432.8513742 -924.1875 437.4375 Z M-851 474 C-851 475.32 -851 476.64 -851 478 C-848.36 478 -845.72 478 -843 478 C-845.46278801 475.53721199 -847.70676982 475.00228745 -851 474 Z M-816 489 C-816 495.27 -816 501.54 -816 508 C-798.34795433 509.32829578 -798.34795433 509.32829578 -782 504 C-781.34 503.01 -780.68 502.02 -780 501 C-788.41271154 497.80701931 -796.84099128 494.658995 -805.3125 491.625 C-806.03493896 491.36251465 -806.75737793 491.1000293 -807.50170898 490.82958984 C-810.4671587 489.77597718 -812.82781226 489 -816 489 Z M-433 494 C-433 515.45 -433 536.9 -433 559 C-427.28109423 555.82283013 -421.82171164 552.68975585 -416.4296875 549.05078125 C-415.74552765 548.59325974 -415.0613678 548.13573822 -414.35647583 547.66435242 C-412.19376067 546.21702055 -410.0343079 544.76490897 -407.875 543.3125 C-405.74573839 541.8854572 -403.61587284 540.459409 -401.48297119 539.03781128 C-400.07090544 538.08708551 -398.66760731 537.12320805 -397.27337646 536.14651489 C-393.20280008 533.32058887 -389.28757339 531.07655702 -384.6519165 529.30136108 C-381.47502672 527.6030679 -381.47502672 527.6030679 -376 522 C-376 512.76 -376 503.52 -376 494 C-394.81 494 -413.62 494 -433 494 Z M-1008.9375 503.4375 C-1012.30283361 506.49689419 -1015.71766649 509.44732757 -1019.25 512.3125 C-1025.01334551 516.99220812 -1030.6773914 521.78093957 -1036.33398438 526.58837891 C-1037.99432734 527.99519354 -1039.66026261 529.39508056 -1041.328125 530.79296875 C-1047.45137367 535.93244681 -1053.42790215 541.1834841 -1059.3125 546.59765625 C-1062.01627557 549.01454866 -1064.79537086 551.29486665 -1067.625 553.5625 C-1071.91621053 557.02354747 -1075.8285141 560.68032938 -1079.63671875 564.6640625 C-1081.5961422 566.60081493 -1083.58568168 568.40071301 -1085.66772461 570.20068359 C-1099.49969687 582.26459624 -1112.45879678 595.29783522 -1125.41503906 608.28466797 C-1128.15314332 611.0281991 -1130.8966438 613.76625432 -1133.640625 616.50390625 C-1135.40917537 618.27311647 -1137.17741602 620.04263637 -1138.9453125 621.8125 C-1140.15636154 623.0205127 -1140.15636154 623.0205127 -1141.39187622 624.25292969 C-1145.5845951 628.46291436 -1149.62722671 632.7453699 -1153.49487305 637.25675964 C-1155.87648671 640.01514826 -1158.38228256 642.6549436 -1160.875 645.3125 C-1165.35420159 650.12755443 -1169.6076977 655.06531844 -1173.7265625 660.1953125 C-1175.79167072 662.74298896 -1177.89946898 665.24270829 -1180.0324707 667.7331543 C-1185.93871022 674.6348851 -1191.57083004 681.71687193 -1197 689 C-1197.48694336 689.65033203 -1197.97388672 690.30066406 -1198.47558594 690.97070312 C-1222.78783295 723.58132593 -1253.54875842 766.90403109 -1249 810 C-1246.68059344 823.60078048 -1240.94781153 835.3270584 -1230 844 C-1220.89863834 850.15950739 -1211.59820042 854.04917268 -1201 857 C-1199.96230469 857.29648438 -1198.92460938 857.59296875 -1197.85546875 857.8984375 C-1114.74865273 878.59828563 -1010.21564145 840.1293716 -757.66845703 739.72900391 C-753.83814103 737.91966818 -749.99544295 736.13744604 -746.15234375 734.35546875 C-729.66305737 726.69457506 -713.32492869 718.75673181 -697.0625 710.625 C-696.14877625 710.16859131 -695.23505249 709.71218262 -694.29364014 709.24194336 C-682.45624031 703.32257601 -670.70541911 697.25598797 -659.00979614 691.06158447 C-656.30877771 689.63489289 -653.5988686 688.22570989 -650.88671875 686.8203125 C-633.47668003 677.79836282 -616.26914369 668.44151928 -599.1875 658.8125 C-598.18396484 658.24732666 -597.18042969 657.68215332 -596.14648438 657.09985352 C-595.22544922 656.57834717 -594.30441406 656.05684082 -593.35546875 655.51953125 C-592.12799927 654.82500854 -592.12799927 654.82500854 -590.87573242 654.11645508 C-589.05471185 653.13669788 -589.05471185 653.13669788 -588 652 C-587.91330568 650.5112814 -587.89296506 649.018555 -587.90234375 647.52734375 C-587.90609009 646.31292603 -587.90609009 646.31292603 -587.90991211 645.07397461 C-587.91901611 644.03893799 -587.92812012 643.00390137 -587.9375 641.9375 C-587.9684375 637.0184375 -587.9684375 637.0184375 -588 632 C-599.55 632 -611.1 632 -623 632 C-623 628.37 -623 624.74 -623 621 C-624.36125 622.175625 -624.36125 622.175625 -625.75 623.375 C-626.39324219 623.92285156 -627.03648437 624.47070312 -627.69921875 625.03515625 C-629.35594654 626.4499849 -631.00328413 627.87583593 -632.64453125 629.30859375 C-640.01138362 635.63008286 -647.64768948 641.05449361 -656 646 C-656.87930176 646.52207031 -656.87930176 646.52207031 -657.77636719 647.0546875 C-668.02957144 653.04557675 -678.75379835 657.25048104 -690 661 C-690.70882324 661.23847656 -691.41764648 661.47695312 -692.14794922 661.72265625 C-704.19315476 665.70642374 -716.47394788 668.08230079 -729 670 C-729.7542627 670.12004395 -730.50852539 670.24008789 -731.28564453 670.36376953 C-757.95243284 674.41663815 -787.51388847 673.67907728 -814 669 C-815.00369629 668.82307617 -816.00739258 668.64615234 -817.04150391 668.46386719 C-857.17474855 661.1508385 -895.49905928 645.86146946 -925 617 C-925.87140625 616.17886719 -926.7428125 615.35773438 -927.640625 614.51171875 C-932.10801626 610.21562317 -935.94233442 605.84816284 -939.5625 600.8125 C-942.87577566 596.25529278 -946.12997093 592.97392093 -950.68359375 589.6953125 C-979.93683384 568.2856899 -995.69408754 534.48390679 -1003 500 C-1005.92400031 500 -1006.81441876 501.46798702 -1008.9375 503.4375 Z " fill="#FEFCFC" transform="translate(1607,386)"/>
<path d="M0 0 C33 0 66 0 100 0 C100 54.45 100 108.9 100 165 C148.51 165 197.02 165 247 165 C247 110.55 247 56.1 247 0 C280 0 313 0 347 0 C347 137.28 347 274.56 347 416 C314 416 281 416 247 416 C247 358.58 247 301.16 247 242 C198.49 242 149.98 242 100 242 C100 299.42 100 356.84 100 416 C67 416 34 416 0 416 C0 278.72 0 141.44 0 0 Z " fill="#E73847" transform="translate(1011,575)"/>
<path d="M0 0 C0.84208008 0.13954102 1.68416016 0.27908203 2.55175781 0.42285156 C31.57696001 5.35640271 59.2027619 14.93427913 82 34 C82.94617188 34.78117188 83.89234375 35.56234375 84.8671875 36.3671875 C108.00550733 56.35922021 121.46380056 84.71627203 124 115 C124 118.96 124 122.92 124 127 C91 127 58 127 24 127 C23.01 119.08 23.01 119.08 22 111 C17.71478192 98.62048111 11.05049527 87.95530663 -0.75390625 81.4921875 C-18.67781585 73.52070174 -41.37651712 71.85046895 -60.140625 78.03515625 C-72.63344873 82.91614643 -82.49776669 89.85825642 -88.2734375 102.23828125 C-91.30315267 109.5845261 -91.23058825 119.34777613 -89.19921875 127.02734375 C-84.31291906 137.65630492 -74.86284 144.34954715 -65 150 C-63.45505859 150.92039062 -63.45505859 150.92039062 -61.87890625 151.859375 C-44.83146002 161.53442961 -25.92118145 167.38963503 -7.41308594 173.60519409 C8.47001489 178.94518187 23.90116137 184.66917263 39 192 C39.93070313 192.45084961 40.86140625 192.90169922 41.8203125 193.36621094 C59.67068764 202.12358509 75.29015317 212.64090084 90 226 C90.68449219 226.61230469 91.36898438 227.22460938 92.07421875 227.85546875 C112.13067383 246.78988438 123.3392628 274.1761541 124.28515625 301.484375 C124.66516804 320.72974071 122.64932189 337.29031292 115 355 C114.54753906 356.05960938 114.09507812 357.11921875 113.62890625 358.2109375 C100.67875329 386.16565861 73.45224187 404.63919926 45.27905273 415.01538086 C21.48511316 423.17860954 -3.23001109 425.19039366 -28.18359375 425.24023438 C-31.09925153 425.24991451 -34.01419467 425.28103431 -36.9296875 425.3125 C-49.55384841 425.38418689 -61.59409302 424.32654786 -74 422 C-75.20785156 421.77554199 -76.41570312 421.55108398 -77.66015625 421.31982422 C-118.45355189 413.21643734 -159.06199915 394.10422213 -183.125 358.875 C-197.9862067 336.29717528 -204 311.90646968 -204 285 C-170.67 285 -137.34 285 -103 285 C-102.01 295.395 -102.01 295.395 -101 306 C-97.24222914 319.99445699 -90.94614598 331.99563989 -78.3125 339.8125 C-58.26483468 350.66537145 -28.98308205 352.85241199 -6.97265625 347.04296875 C-1.67537587 345.184396 3.19076671 342.89271793 8 340 C9.01707031 339.39091797 9.01707031 339.39091797 10.0546875 338.76953125 C16.47850715 334.13010594 21.73440218 323.82230944 23 316 C23.89089123 303.98027072 22.88501905 292.79717731 15.5625 282.75 C-0.8910624 264.02384611 -29.31308668 255.89559319 -52.0625 248.1875 C-80.2396385 238.60782558 -109.08072495 227.5452396 -134 211 C-134.5878125 210.61134766 -135.175625 210.22269531 -135.78125 209.82226562 C-144.5779854 203.93565713 -152.38608343 197.33563015 -160 190 C-160.71671875 189.34644531 -161.4334375 188.69289063 -162.171875 188.01953125 C-178.9708969 172.26204871 -189.8297918 148.71074116 -191.19067383 125.78833008 C-191.26653968 122.52313306 -191.27327268 119.2659331 -191.25 116 C-191.25773438 114.91460938 -191.26546875 113.82921875 -191.2734375 112.7109375 C-191.2119391 86.94310816 -181.78748221 65.16127777 -165 46 C-164.28328125 45.18144531 -163.5665625 44.36289062 -162.828125 43.51953125 C-123.93843461 2.21751044 -53.7355978 -8.991709 0 0 Z " fill="#E73847" transform="translate(832,571)"/>
<path d="M0 0 C1.49862579 -0.00855011 1.49862579 -0.00855011 3.02752686 -0.01727295 C5.13520266 -0.02666519 7.24289277 -0.03323375 9.35058594 -0.03710938 C12.49702343 -0.04672269 15.64278026 -0.077764 18.7890625 -0.109375 C36.19599575 -0.2005309 53.31887872 1.40787223 70.296875 5.390625 C71.19092041 5.60001709 72.08496582 5.80940918 73.00610352 6.02514648 C97.1853037 11.95852408 120.84237736 22.51892422 140.296875 38.203125 C140.88259277 38.67218262 141.46831055 39.14124023 142.07177734 39.62451172 C152.25286574 47.86117246 161.55717525 56.74362936 168.9453125 67.64453125 C170.64347731 69.60281957 171.8287725 70.37539949 174.296875 71.203125 C176.86817907 70.37042604 176.86817907 70.37042604 179.46484375 68.7734375 C180.44001953 68.22558594 181.41519531 67.67773438 182.41992188 67.11328125 C183.43119141 66.52417969 184.44246094 65.93507813 185.484375 65.328125 C187.49799055 64.18365038 189.51227621 63.04035368 191.52734375 61.8984375 C192.41832764 61.38297363 193.30931152 60.86750977 194.22729492 60.33642578 C196.296875 59.203125 196.296875 59.203125 197.296875 59.203125 C197.34634366 63.27820072 197.38262689 67.35315997 197.40673828 71.4284668 C197.4167907 72.81456548 197.4304347 74.20064299 197.44775391 75.58666992 C197.47203452 77.5798225 197.48229531 79.57313033 197.4921875 81.56640625 C197.50266113 82.76563721 197.51313477 83.96486816 197.52392578 85.20043945 C197.296875 88.203125 197.296875 88.203125 195.296875 91.203125 C195.956875 91.863125 196.616875 92.523125 197.296875 93.203125 C197.54297066 95.40139198 197.54297066 95.40139198 197.53738403 98.18911743 C197.54150803 99.77089531 197.54150803 99.77089531 197.54571533 101.3846283 C197.53852478 102.54628006 197.53133423 103.70793182 197.52392578 104.90478516 C197.52421783 106.12427353 197.52450989 107.3437619 197.52481079 108.60020447 C197.52365408 111.94924888 197.51360608 115.29804839 197.49966288 118.64704943 C197.48718198 122.14509393 197.48598711 125.6431415 197.48361206 129.14120483 C197.4773895 135.76749731 197.46096824 142.39372399 197.44091308 149.01998746 C197.41638824 157.30237486 197.40542265 165.58477288 197.39453125 173.8671875 C197.37503714 188.64588462 197.33497531 203.42443812 197.296875 218.203125 C166.606875 218.698125 166.606875 218.698125 135.296875 219.203125 C140.741875 223.658125 140.741875 223.658125 146.296875 228.203125 C154.84289698 235.57406896 163.96587167 243.7379616 170.296875 253.203125 C170.296875 253.863125 170.296875 254.523125 170.296875 255.203125 C170.86019531 255.45835937 171.42351562 255.71359375 172.00390625 255.9765625 C181.01901001 260.7989519 191.59244153 269.67869776 197.296875 278.203125 C197.69445855 280.87251738 197.86351686 283.13274241 197.84518433 285.79838562 C197.85565768 286.55514283 197.86613104 287.31190003 197.87692177 288.09158927 C197.90688742 290.62336747 197.90833113 293.15433605 197.90966797 295.6862793 C197.92491372 297.50329449 197.94176917 299.32029678 197.96011353 301.13728333 C198.00399899 306.07141054 198.02160096 311.00528988 198.03176641 315.93959022 C198.03905558 319.02441641 198.05153683 322.10917779 198.0657692 325.19397926 C198.11476121 335.96227492 198.14086158 346.73037791 198.14794922 357.4987793 C198.15521542 367.52564338 198.21496992 377.55128139 198.29875839 387.57777089 C198.36822666 396.19371045 198.39904718 404.80924443 198.40044129 413.42546207 C198.40202521 418.56822389 198.41942027 423.70973741 198.47643661 428.85220909 C198.52890853 433.6931291 198.53315406 438.53177128 198.50112534 443.3728466 C198.49750434 445.14412671 198.51080784 446.91553934 198.54276276 448.68653488 C198.76874313 462.03008532 198.76874313 462.03008532 195.10121536 467.44475746 C192.62139464 469.95756273 190.12768548 472.1014394 187.296875 474.203125 C186.24271084 475.12505238 185.19124887 476.05009551 184.14453125 476.98046875 C156.79058899 498.19607895 125.18356494 508.80800726 91.296875 514.203125 C90.48734375 514.33589844 89.6778125 514.46867187 88.84375 514.60546875 C62.30559281 518.73465754 32.65375288 517.85937166 6.296875 513.203125 C5.29317871 513.02620117 4.28948242 512.84927734 3.25537109 512.66699219 C-36.86998029 505.3554018 -75.21402778 490.06921313 -104.703125 461.203125 C-105.65960937 460.29691406 -106.61609375 459.39070313 -107.6015625 458.45703125 C-112.17063948 454.04442951 -116.21253657 449.68358098 -119.828125 444.453125 C-122.89724421 440.0490637 -126.02641472 437.06323947 -130.35546875 433.9296875 C-144.20010895 423.74777241 -154.52415442 410.53067006 -163.703125 396.203125 C-164.08243164 395.61128418 -164.46173828 395.01944336 -164.85253906 394.40966797 C-185.43043947 361.73315612 -186.14400446 323.67787931 -185.703125 286.203125 C-185.04530029 286.24614746 -184.38747559 286.28916992 -183.7097168 286.33349609 C-166.51465582 287.20977279 -156.84053915 284.50390091 -143.98681641 273.15478516 C-140.16531967 269.8889048 -136.05698698 267.03727005 -131.953125 264.140625 C-130.51987226 263.10940736 -129.08753068 262.07692177 -127.65625 261.04296875 C-124.01102418 258.42151227 -120.35836667 255.81059451 -116.703125 253.203125 C-119.41323856 250.40832039 -122.17041362 247.78232023 -125.140625 245.265625 C-151.89662159 221.8352325 -170.01330004 192.22934535 -172.703125 156.203125 C-174.7161688 117.79952151 -164.82133968 84.63584996 -139.02294922 55.66796875 C-128.47606167 43.96221121 -116.31842591 35.04223765 -102.703125 27.203125 C-101.57648438 26.54570313 -100.44984375 25.88828125 -99.2890625 25.2109375 C-69.79761814 8.46803826 -33.77472631 0.15445647 0 0 Z M-113.703125 68.203125 C-114.39792969 68.81414062 -115.09273437 69.42515625 -115.80859375 70.0546875 C-133.2578702 86.4242682 -144.81652424 110.21730256 -145.82592773 134.10986328 C-146.63959103 165.8402585 -139.33298931 192.09612492 -117.47265625 215.75390625 C-109.62418368 223.99142918 -101.16080613 230.90268858 -91.703125 237.203125 C-90.73874512 237.8532959 -90.73874512 237.8532959 -89.75488281 238.51660156 C-64.38852387 255.40667102 -35.72247689 266.27324447 -7.09375 276.19921875 C37.02882669 291.50356878 37.02882669 291.50356878 52.296875 303.203125 C52.97621094 303.70199219 53.65554688 304.20085937 54.35546875 304.71484375 C62.32525402 310.9706967 66.75692925 319.25659014 68.296875 329.203125 C69.48450067 341.29051514 67.41270697 351.51448177 60.546875 361.640625 C52.37885011 371.51291971 39.58497037 375.45512562 27.296875 377.203125 C23.06332156 377.47192204 18.8503072 377.48955324 14.609375 377.453125 C13.46106201 377.44563232 12.31274902 377.43813965 11.12963867 377.43041992 C-8.09942459 377.18739215 -27.04724861 374.44789322 -41.9453125 361.2109375 C-54.74884923 348.02087891 -56.53116934 330.78245983 -57.703125 313.203125 C-91.033125 313.203125 -124.363125 313.203125 -158.703125 313.203125 C-158.703125 349.60357861 -146.66305173 381.11856542 -120.859375 407.1171875 C-114.03440181 413.74693042 -106.5003558 419.08002183 -98.44482422 424.11132812 C-96.92526388 425.06387562 -95.42381861 426.04520009 -93.92578125 427.03125 C-76.56947844 437.93946968 -56.24362156 444.36994783 -36.390625 448.828125 C-35.47788818 449.03477783 -34.56515137 449.24143066 -33.62475586 449.4543457 C-18.82981736 452.64368153 -4.45478756 453.52971233 10.63134766 453.46386719 C13.52918667 453.45319017 16.42639892 453.46380326 19.32421875 453.4765625 C36.90576479 453.48980421 54.14817627 452.22705212 71.296875 448.203125 C72.493125 447.92726563 73.689375 447.65140625 74.921875 447.3671875 C107.52399574 439.28572961 137.49038318 422.39583968 155.296875 393.203125 C171.13361223 365.47075637 173.38815519 333.010945 165.30078125 302.4375 C161.03745313 288.3345876 154.14569493 275.19273489 144.296875 264.203125 C143.23339844 262.96175781 143.23339844 262.96175781 142.1484375 261.6953125 C112.92034681 228.15992424 69.45351911 212.30236439 28.43045044 198.48587036 C14.37150186 193.74881486 0.53309192 188.98273112 -12.703125 182.203125 C-13.35023438 181.88069824 -13.99734375 181.55827148 -14.6640625 181.22607422 C-26.68221449 175.1710104 -37.60766624 167.0045807 -43.9296875 154.84375 C-46.06349445 147.55863132 -46.04934715 137.20965771 -43.078125 130.140625 C-41.95703125 128.11328125 -41.95703125 128.11328125 -40.703125 126.203125 C-40.27902344 125.52121094 -39.85492187 124.83929687 -39.41796875 124.13671875 C-32.08690827 113.37496701 -20.2429824 106.98975998 -7.703125 104.203125 C11.2868728 101.4560995 33.91451063 101.46015718 50.0546875 113.2109375 C63.95029158 125.11552965 67.02091704 136.99546129 69.296875 155.203125 C102.296875 155.203125 135.296875 155.203125 169.296875 155.203125 C169.296875 124.83302267 160.92819849 99.45074492 141.296875 76.203125 C140.29914063 74.98496094 140.29914063 74.98496094 139.28125 73.7421875 C117.61061267 48.29925404 84.39045451 35.09999408 52.296875 29.203125 C51.17152344 28.98785156 50.04617188 28.77257812 48.88671875 28.55078125 C-6.53162252 18.54773414 -70.8281026 30.31993137 -113.703125 68.203125 Z M63.296875 182.203125 C66.20595728 184.14251319 68.70549879 185.17087457 71.984375 186.328125 C72.97824219 186.68132812 73.97210937 187.03453125 74.99609375 187.3984375 C75.75535156 187.66398438 76.51460937 187.92953125 77.296875 188.203125 C77.296875 186.223125 77.296875 184.243125 77.296875 182.203125 C72.676875 182.203125 68.056875 182.203125 63.296875 182.203125 Z M-103.890625 280.640625 C-104.44943359 281.06150391 -105.00824219 281.48238281 -105.58398438 281.91601562 C-106.98045799 282.98170062 -108.34486655 284.08914249 -109.703125 285.203125 C-109.703125 285.533125 -109.703125 285.863125 -109.703125 286.203125 C-101.123125 286.203125 -92.543125 286.203125 -83.703125 286.203125 C-92.8493579 276.0544992 -92.8493579 276.0544992 -103.890625 280.640625 Z M-30.703125 317.203125 C-30.703125 318.523125 -30.703125 319.843125 -30.703125 321.203125 C-28.063125 321.203125 -25.423125 321.203125 -22.703125 321.203125 C-25.16591301 318.74033699 -27.40989482 318.20541245 -30.703125 317.203125 Z M4.296875 332.203125 C4.296875 338.473125 4.296875 344.743125 4.296875 351.203125 C21.94892067 352.53142078 21.94892067 352.53142078 38.296875 347.203125 C38.956875 346.213125 39.616875 345.223125 40.296875 344.203125 C31.88416346 341.01014431 23.45588372 337.86212 14.984375 334.828125 C14.26193604 334.56563965 13.53949707 334.3031543 12.79516602 334.03271484 C9.8297163 332.97910218 7.46906274 332.203125 4.296875 332.203125 Z " fill="#FDFCFC" transform="translate(786.703125,542.796875)"/>
<path d="M0 0 C31.35 0 62.7 0 95 0 C95 11.55 95 23.1 95 35 C94 36 94 36 91.71580505 36.12025452 C90.70542679 36.11803391 89.69504852 36.11581329 88.65405273 36.11352539 C86.91835022 36.11334412 86.91835022 36.11334412 85.14758301 36.11315918 C83.92196655 36.10804321 82.6963501 36.10292725 81.43359375 36.09765625 C79.754328 36.09614563 79.754328 36.09614563 78.0411377 36.09460449 C73.83991478 36.0893535 69.63870641 36.07539239 65.4375 36.0625 C56.053125 36.041875 46.66875 36.02125 37 36 C37.33 57.12 37.66 78.24 38 100 C59.15550401 86.47074568 59.15550401 86.47074568 80 72.5 C82.03183262 71.10791682 84.06439822 69.71694877 86.09887695 68.32873535 C87.33470006 67.48530632 88.56900166 66.63964207 89.80151367 65.79138184 C93.88781617 63 93.88781617 63 95 63 C95.24850467 67.71356013 95.42920182 72.42326446 95.54931641 77.1418457 C95.59940142 78.74375842 95.66749983 80.3452185 95.75439453 81.94555664 C96.45330167 95.15490148 96.45330167 95.15490148 93.09643555 99.41674805 C90.48861038 101.25999405 87.88014186 102.62574539 85 104 C83.27924099 105.08663228 81.57196709 106.1949153 79.87890625 107.32421875 C78.10831319 108.44774683 76.33613054 109.56877311 74.5625 110.6875 C73.61963135 111.28473877 72.6767627 111.88197754 71.70532227 112.49731445 C68.8049146 114.33371321 65.90246907 116.16686164 63 118 C61.17433373 119.15602034 59.34880814 120.31226291 57.5234375 121.46875 C55.82823584 122.54184178 54.13292841 123.6147665 52.4375 124.6875 C51.26973022 125.42649536 51.26973022 125.42649536 50.07836914 126.18041992 C48.05500996 127.45808362 46.02812498 128.7299212 44 130 C43.04222656 130.60457031 42.08445312 131.20914063 41.09765625 131.83203125 C39 133 39 133 37 133 C37.00222061 133.9373851 37.00444122 134.8747702 37.00672913 135.84056091 C37.02696143 144.65521785 37.04197256 153.4698701 37.05181217 162.28454494 C37.05704078 166.81674094 37.06413801 171.34891827 37.07543945 175.88110352 C37.08626914 180.2512283 37.09227701 184.62133508 37.09487724 188.99147224 C37.09673135 190.66250963 37.10035168 192.33354597 37.10573006 194.00457573 C37.11294159 196.33697551 37.1139909 198.66929993 37.11352539 201.00170898 C37.11712067 201.6994191 37.12071594 202.39712921 37.12442017 203.11598206 C37.11405216 207.88594784 37.11405216 207.88594784 36 209 C33.03134585 209.03476938 30.08625337 209.00534312 27.11938477 208.93554688 C25.18194603 208.89942788 23.24449068 208.86419276 21.30702209 208.82971191 C20.27159838 208.81044144 19.23617466 208.79117096 18.16937447 208.77131653 C11.49672566 208.66265437 4.82319701 208.63231652 -1.85015774 208.59247589 C-7.69142731 208.55328456 -13.52908763 208.48429479 -19.36889648 208.34521484 C-56.50072932 207.13638512 -56.50072932 207.13638512 -87.6973114 224.97637939 C-91.08218972 227.95103672 -94.79401526 230.2745705 -98.625 232.625 C-99.96648361 233.48703674 -101.30652584 234.35132442 -102.64453125 235.21875 C-130.30408239 252.93119068 -158.39394264 269.86879592 -187 286 C-188.05783691 286.5990918 -189.11567383 287.19818359 -190.20556641 287.81542969 C-216.85496665 302.90690638 -243.92187684 317.16901648 -271.20050049 331.08203125 C-272.8501265 331.92354586 -274.49907211 332.76639393 -276.14794922 333.609375 C-291.57571724 341.48063124 -307.241609 348.81842316 -323 356 C-323.69929626 356.31924438 -324.39859253 356.63848877 -325.11907959 356.96740723 C-363.49802547 374.48166417 -402.341711 390.60608428 -442 405 C-443.16665192 405.4241217 -443.16665192 405.4241217 -444.35687256 405.85681152 C-527.15324828 435.91919988 -613.74147756 460.15854324 -724 467 C-725.23073242 467.03504639 -725.23073242 467.03504639 -726.48632812 467.07080078 C-771.90919011 468.15446569 -829.93154693 464.60011609 -867 435 C-866.70985788 431.51829452 -866.27243676 430.25771045 -863.6875 427.8125 C-859.15680599 424.75691567 -856.58624606 423.49577827 -851 424 C-848.62742515 425.25146805 -846.52362061 426.51358545 -844.3125 428 C-823.84291165 440.92479014 -799.71608112 447.20254824 -776 451 C-775.07155273 451.15098145 -774.14310547 451.30196289 -773.18652344 451.45751953 C-737.42051972 456.95587533 -699.82846863 455.27192407 -664 451 C-663.29260681 450.9175 -662.58521362 450.835 -661.85638428 450.75 C-567.66650306 439.73580728 -475.29300943 410.39766443 -330.328125 349.52587891 C-327.06741859 348.03091008 -323.79960973 346.55236397 -320.53125 345.07421875 C-303.62287711 337.36059425 -286.98555956 329.09857086 -270.35800552 320.80171585 C-268.53213691 319.8910289 -266.70563274 318.98162798 -264.8789978 318.07247925 C-250.25664561 310.78621271 -235.78627523 303.29142179 -221.495224 295.37446594 C-217.85583276 293.3697484 -214.19815837 291.39933589 -210.54083252 289.42758179 C-198.96290165 283.18492972 -187.60150322 276.59542441 -176.26904297 269.91992188 C-172.81161843 267.88936276 -169.34615736 265.87308228 -165.87890625 263.859375 C-150.39963364 254.8597589 -135.11038308 245.61056686 -120 236 C-118.93700684 235.32517578 -117.87401367 234.65035156 -116.77880859 233.95507812 C-104.42710731 226.10703935 -92.12185669 218.19949981 -80 210 C-90.09246763 208.92597051 -96.37634311 211.53064585 -105 216.5625 C-106.21910179 217.24807119 -107.43976241 217.93087687 -108.66186523 218.61108398 C-111.19337839 220.02300931 -113.7178518 221.44643626 -116.23779297 222.87890625 C-122.12241597 226.21219269 -128.09490691 229.38070558 -134.0625 232.5625 C-135.21951416 233.18261963 -136.37652832 233.80273926 -137.56860352 234.44165039 C-148.87006141 240.49226011 -160.24854098 246.38976768 -171.64306641 252.26269531 C-174.90776515 253.95226595 -178.16394921 255.65715438 -181.41796875 257.3671875 C-213.4832492 274.17005804 -246.05521373 290.14222683 -279.02185059 305.10076904 C-281.23892722 306.10861199 -283.45404026 307.12069447 -285.66894531 308.13330078 C-368.92141709 346.18365079 -454.141564 381.09623035 -726 441 C-727.09030518 441.03504639 -727.09030518 441.03504639 -728.20263672 441.07080078 C-762.52632058 442.00397839 -801.2336483 438.80142533 -828.375 415.625 C-841.13378505 403.50725602 -846.8285444 387.90223694 -847.3125 370.5 C-846.59710333 335.78443537 -830.34036483 303.68998165 -812 275 C-811.57509277 274.33355469 -811.15018555 273.66710938 -810.71240234 272.98046875 C-798.34106308 253.71981849 -784.48232148 235.47124779 -769.61328125 218.08203125 C-767.20918687 215.26364971 -764.88232006 212.38828047 -762.5625 209.5 C-758.69609833 204.7450895 -754.61471132 200.23338355 -750.42407227 195.765625 C-747.80607296 192.97309241 -745.24287082 190.14668606 -742.73510742 187.25439453 C-731.54335764 174.44162985 -719.5400155 162.37806499 -707.49975586 150.36938477 C-705.03706613 147.91212218 -702.57985798 145.44946683 -700.12304688 142.98632812 C-698.531571 141.39551213 -696.93978546 139.80500587 -695.34765625 138.21484375 C-694.62667252 137.49183578 -693.90568878 136.76882782 -693.16285706 136.02391052 C-689.1687968 132.04805041 -685.08475764 128.24393502 -680.79832458 124.58424377 C-678.95249998 122.9581546 -677.2218367 121.25615044 -675.5 119.5 C-672.57869212 116.53284199 -669.52008327 113.79941029 -666.3671875 111.08203125 C-663.36277451 108.439536 -660.43265928 105.72159827 -657.5 103 C-652.73377807 98.58488097 -647.93152568 94.23077602 -643 90 C-642.5148291 89.58314941 -642.0296582 89.16629883 -641.52978516 88.73681641 C-637.97379928 85.68200262 -634.4130677 82.63276568 -630.85107422 79.58496094 C-629.04658148 78.03988485 -627.24368504 76.49297021 -625.44140625 74.9453125 C-622.5310502 72.44621122 -619.61789106 69.95041663 -616.70263672 67.45703125 C-615.58374887 66.49954306 -614.46556287 65.54123399 -613.34814453 64.58203125 C-606.85016626 59.00731634 -600.26517337 53.58553947 -593.50512695 48.33129883 C-588.82554669 44.68236712 -584.25073306 40.91797265 -579.6875 37.125 C-573.3287926 31.84913162 -566.8538476 26.7615847 -560.26367188 21.77856445 C-554.6902633 17.55760347 -549.22568302 13.21427258 -543.81982422 8.78076172 C-540.98311871 6.4772775 -538.30038274 4.55592655 -535 3 C-534.97494385 3.75506836 -534.9498877 4.51013672 -534.92407227 5.28808594 C-534.80659976 8.77550094 -534.68457221 12.26274309 -534.5625 15.75 C-534.52318359 16.93722656 -534.48386719 18.12445312 -534.44335938 19.34765625 C-534.40146484 20.52714844 -534.35957031 21.70664062 -534.31640625 22.921875 C-534.25864014 24.69292603 -534.25864014 24.69292603 -534.19970703 26.49975586 C-534.04804483 29.98858774 -534.04804483 29.98858774 -533.53076172 33.37719727 C-533.12049453 36.33016692 -532.80525152 39.02465985 -533 42 C-535.13530249 44.73414534 -536.18842055 45.73713418 -539 47.4375 C-540.30138941 48.33520462 -541.59945697 49.23773987 -542.89453125 50.14453125 C-543.91087646 50.83409912 -543.91087646 50.83409912 -544.94775391 51.53759766 C-548.3989063 53.99684139 -551.52440037 56.81104457 -554.6875 59.625 C-559.00257281 63.41307482 -563.3463254 67.139318 -567.8125 70.75 C-572.23271089 74.33076431 -576.47521139 78.06813039 -580.68359375 81.89453125 C-585.16734735 85.96998351 -589.7422596 89.93673002 -594.36328125 93.85546875 C-602.5873095 100.8119439 -602.5873095 100.8119439 -610.31161499 108.31115723 C-612.04781458 110.04782755 -613.85256548 111.64989752 -615.71337891 113.25195312 C-629.39151473 125.14876667 -642.19156586 138.03015334 -654.98779297 150.85742188 C-657.6534681 153.52852608 -660.32454162 156.1941501 -662.99609375 158.859375 C-664.71907122 160.5830123 -666.44173898 162.30695925 -668.1640625 164.03125 C-668.94955475 164.81471802 -669.735047 165.59818604 -670.54434204 166.40539551 C-674.68344353 170.56199979 -678.66766523 174.79616362 -682.48718262 179.24906921 C-684.87211111 182.00937906 -687.37979994 184.65229681 -689.875 187.3125 C-694.35420159 192.12755443 -698.6076977 197.06531844 -702.7265625 202.1953125 C-704.79167072 204.74298896 -706.89946898 207.24270829 -709.0324707 209.7331543 C-714.93871022 216.6348851 -720.57083004 223.71687193 -726 231 C-726.73041504 231.97549805 -726.73041504 231.97549805 -727.47558594 232.97070312 C-751.78783295 265.58132593 -782.54875842 308.90403109 -778 352 C-775.80709973 364.85895957 -770.55255286 376.86377409 -760 385 C-750.86295837 391.11887046 -741.61106788 395.04559003 -731 398 C-729.96230469 398.29648438 -728.92460938 398.59296875 -727.85546875 398.8984375 C-644.74865273 419.59828563 -540.21564145 381.1293716 -287.66845703 280.72900391 C-283.83814103 278.91966818 -279.99544295 277.13744604 -276.15234375 275.35546875 C-259.66305737 267.69457506 -243.32492869 259.75673181 -227.0625 251.625 C-226.14877625 251.16859131 -225.23505249 250.71218262 -224.29364014 250.24194336 C-212.45624031 244.32257601 -200.70541911 238.25598797 -189.00979614 232.06158447 C-186.30877771 230.63489289 -183.5988686 229.22570989 -180.88671875 227.8203125 C-165.50659666 219.8628807 -165.50659666 219.8628807 -150.31640625 211.55102539 C-145.47182722 208.82726234 -140.62493073 206.34869541 -135.54296875 204.09375 C-133.9506543 203.33372681 -133.9506543 203.33372681 -132.32617188 202.55834961 C-130.29683826 201.59119598 -128.23644709 200.68569797 -126.14648438 199.85766602 C-122.78571336 198.38217744 -122.78571336 198.38217744 -119 194 C-118.67 187.07 -118.34 180.14 -118 173 C-79.06 173 -40.12 173 0 173 C0 115.91 0 58.82 0 0 Z " fill="#1C3456" transform="translate(1137,844)"/>
<path d="M0 0 C0.94939453 0.04108887 1.89878906 0.08217773 2.87695312 0.12451172 C33.76259046 1.62843277 66.68823779 6.46837072 89 30 C100.47446864 43.42804745 104.18655901 60.69130587 103 78 C98.60186038 120.74409446 74.31049479 160.77028728 48.46777344 194.08789062 C46.95635564 196.05685673 45.47836332 198.04723204 44.0078125 200.046875 C38.2279637 207.89624927 32.21110651 215.42256376 25.80078125 222.765625 C23.29319679 225.64064908 20.88704125 228.58622515 18.5 231.5625 C14.65719092 236.29963555 10.59483041 240.78784231 6.42382812 245.23461914 C3.81704774 248.01521453 1.26531143 250.82927275 -1.22998047 253.71069336 C-4.840335 257.8441006 -8.54855895 261.87358205 -12.3125 265.8671875 C-13.34129272 266.95904861 -13.34129272 266.95904861 -14.39086914 268.07296753 C-21.70329088 275.7963675 -29.19031301 283.34179719 -36.72119141 290.8515625 C-39.03016236 293.15509127 -41.33362777 295.46403136 -43.63671875 297.7734375 C-45.13249141 299.26855047 -46.62857364 300.76335381 -48.125 302.2578125 C-48.79909912 302.93393585 -49.47319824 303.6100592 -50.16772461 304.30667114 C-54.08683243 308.20672876 -58.11309923 311.92396892 -62.30712891 315.52731323 C-64.30247163 317.26313047 -66.16338444 319.09779102 -68 321 C-71.10713922 324.14920881 -74.32490304 327.07976967 -77.6796875 329.9609375 C-80.04047336 332.03556749 -82.3395235 334.16495872 -84.63623047 336.30981445 C-90.01873495 341.33562806 -95.50769262 346.11067346 -101.25390625 350.72265625 C-104.26320269 353.21827478 -107.13920076 355.83784189 -110 358.5 C-114.52849521 362.70906681 -119.19976451 366.67443112 -124.015625 370.55078125 C-127.5927663 373.48647182 -131.07734259 376.51874373 -134.5625 379.5625 C-139.39109538 383.77115131 -144.2601766 387.89099732 -149.29296875 391.85546875 C-152.11121295 394.08810377 -154.89931424 396.35474833 -157.68505859 398.62768555 C-163.69086911 403.52791 -169.7204341 408.39478519 -175.8125 413.1875 C-176.39290039 413.64487549 -176.97330078 414.10225098 -177.57128906 414.57348633 C-180.00058312 416.47740022 -182.43012991 418.28675327 -185 420 C-185.45369458 421.88298698 -185.45369458 421.88298698 -185.38196754 424.08517551 C-185.39080739 424.94545622 -185.39964723 425.80573693 -185.40875494 426.69208676 C-185.40322525 427.64275223 -185.39769555 428.59341771 -185.39199829 429.57289124 C-185.39793955 430.5784484 -185.40388081 431.58400556 -185.41000211 432.62003416 C-185.42639654 436.01120415 -185.42133047 439.40201146 -185.41650391 442.79321289 C-185.42387795 445.21550418 -185.43258107 447.63779173 -185.44252014 450.06007385 C-185.46106581 455.28642567 -185.47048381 460.51271079 -185.47182083 465.73909187 C-185.47385687 473.29670227 -185.49329665 480.85418967 -185.51721875 488.41175883 C-185.55565078 500.67398843 -185.58144402 512.93620972 -185.59863281 525.19848633 C-185.61536977 537.10963101 -185.63554721 549.02075759 -185.66210938 560.93188477 C-185.66455951 562.03244986 -185.66455951 562.03244986 -185.66705914 563.15524859 C-185.68501377 571.15938032 -185.70435909 579.16350779 -185.72536278 587.1676321 C-185.7272042 587.8703946 -185.72904562 588.57315709 -185.73094284 589.29721541 C-185.73832129 592.10597509 -185.7457147 594.91473471 -185.75328664 597.72349387 C-185.77545511 605.95975007 -185.79324435 614.19598854 -185.80323945 622.43226897 C-185.81035677 628.20443006 -185.82204548 633.97657421 -185.83537102 639.74872398 C-185.83994814 642.1235998 -185.84278091 644.49847967 -185.84379387 646.87335968 C-185.8453538 650.10029816 -185.85290118 653.32716765 -185.86196899 656.55409241 C-185.86090074 657.50698861 -185.85983249 658.45988481 -185.85873187 659.44165665 C-185.88596417 665.88596417 -185.88596417 665.88596417 -187 667 C-188.97197538 667.09887812 -190.9475444 667.12632256 -192.92199707 667.12698364 C-194.20929214 667.12980347 -195.49658722 667.13262329 -196.82289124 667.13552856 C-198.262787 667.13358396 -199.70268264 667.13153578 -201.14257812 667.12939453 C-202.64847354 667.13074851 -204.15436861 667.13252843 -205.66026306 667.13470459 C-209.76138807 667.13927928 -213.86248804 667.13748922 -217.96361351 667.1343255 C-222.24596603 667.13180209 -226.52831634 667.13413939 -230.81066895 667.13571167 C-238.00350328 667.13753342 -245.19632737 667.13512692 -252.38916016 667.13037109 C-260.71716334 667.12492846 -269.04514204 667.12669112 -277.37314463 667.1321975 C-284.51027846 667.13672848 -291.6474049 667.13737925 -298.7845397 667.13475883 C-303.05298355 667.13319597 -307.32141588 667.13300253 -311.58985901 667.13629532 C-315.60183934 667.13917381 -319.61378796 667.13719875 -323.62576485 667.13140106 C-325.10244761 667.13007334 -326.57913302 667.13046778 -328.05581474 667.13266373 C-330.06320987 667.13537474 -332.07061079 667.13138084 -334.07800293 667.12698364 C-335.20405693 667.12660662 -336.33011093 667.12622959 -337.49028778 667.12584114 C-340 667 -340 667 -341 666 C-341.10087212 663.49075847 -341.13972032 661.00963616 -341.1328125 658.5 C-341.13376923 657.74912109 -341.13472595 656.99824219 -341.13571167 656.22460938 C-341.13639338 654.63411373 -341.13453972 653.04361533 -341.13037109 651.453125 C-341.12502267 649.01035345 -341.13031634 646.56776579 -341.13671875 644.125 C-341.13605797 642.58333293 -341.1347768 641.04166597 -341.1328125 639.5 C-341.13483673 638.76458984 -341.13686096 638.02917969 -341.13894653 637.27148438 C-341.11495161 632.11495161 -341.11495161 632.11495161 -340 631 C-301.06 631 -262.12 631 -222 631 C-222 487.78 -222 344.56 -222 197 C-210.12 197 -198.24 197 -186 197 C-185.67 256.73 -185.34 316.46 -185 378 C-181.7 375.03 -178.4 372.06 -175 369 C-173.22337185 367.52338293 -171.43519597 366.06026865 -169.625 364.625 C-164.48241457 360.46437925 -159.62548263 356.05643696 -154.77734375 351.5625 C-151.88769327 348.89638085 -148.94490996 346.30401647 -145.9765625 343.7265625 C-138.43767442 337.14120967 -131.07019801 330.35729199 -123.70960999 323.57417297 C-122.61231708 322.56380871 -121.51404328 321.55450811 -120.41453552 320.54655457 C-109.72277955 310.73594615 -99.41050861 300.56550383 -89.16308594 290.29345703 C-86.47966144 287.60462042 -83.79086208 284.92124044 -81.1015625 282.23828125 C-79.36947057 280.50552925 -77.63768846 278.77246747 -75.90625 277.0390625 C-74.71860046 275.85444931 -74.71860046 275.85444931 -73.50695801 274.64590454 C-69.34985472 270.47137327 -65.34604364 266.22098338 -61.51034546 261.74845886 C-59.1264816 258.98876712 -56.61940213 256.3468525 -54.125 253.6875 C-49.63810543 248.86417577 -45.37710987 243.91844022 -41.25390625 238.77734375 C-39.2856864 236.35203298 -37.2668392 233.98202138 -35.22119141 231.62207031 C-27.31469193 222.46234622 -20.15630917 212.7497665 -13 203 C-12.4726123 202.28859863 -11.94522461 201.57719727 -11.40185547 200.84423828 C10.81049313 170.80585218 39.55973381 127.685729 33.70703125 88.01416016 C32.02703185 78.50093777 29.04896203 70.67752873 23 63 C22.49984375 62.35804688 21.9996875 61.71609375 21.484375 61.0546875 C12.77976077 51.25100581 -0.73878326 46.41023226 -13 43 C-14.04929687 42.70351563 -15.09859375 42.40703125 -16.1796875 42.1015625 C-94.28154311 22.8147962 -190.60397507 56.35770148 -264.02490234 81.63720703 C-267.68202578 82.89504236 -271.34933302 84.12063227 -275.01953125 85.33984375 C-310.59711281 97.24591863 -345.53548718 111.20041298 -380 126 C-380.6794165 126.29156982 -381.35883301 126.58313965 -382.05883789 126.88354492 C-402.52820052 135.6777354 -422.82629577 144.84570428 -443.08123779 154.12133789 C-444.97991693 154.99080332 -446.87884004 155.85973374 -448.77783203 156.72851562 C-455.52084091 159.81403817 -462.26191001 162.90375019 -469 166 C-469.33 165.01 -469.66 164.02 -470 163 C-485.84 163 -501.68 163 -518 163 C-515.33797005 160.33797005 -513.70652083 159.1656231 -510.44140625 157.5390625 C-509.0495813 156.84248535 -509.0495813 156.84248535 -507.62963867 156.13183594 C-506.61748291 155.63458008 -505.60532715 155.13732422 -504.5625 154.625 C-502.96208862 153.83270996 -502.96208862 153.83270996 -501.3293457 153.02441406 C-489.94036162 147.42113625 -478.43375943 142.0761503 -466.89599609 136.78759766 C-463.46967304 135.2168496 -460.04713403 133.63799799 -456.62507629 132.0579834 C-438.56581057 123.72330393 -420.43840451 115.60089932 -402.10351562 107.88671875 C-399.79692543 106.91439568 -397.49209351 105.93798345 -395.1875 104.9609375 C-370.61761908 94.54763116 -345.95678086 84.45073941 -321 75 C-320.28193176 74.72776611 -319.56386353 74.45553223 -318.82403564 74.17504883 C-239.10664736 43.97707232 -157.42471884 17.24212563 0 0 Z " fill="#1C3456" transform="translate(1607,386)"/>
<path d="M0 0 C4.91303705 3.5671785 9.5864839 7.29774544 14.1171875 11.33984375 C15.79421975 12.81855476 17.50584297 14.22704499 19.25 15.625 C23.15322909 18.99597058 25.73793814 21.24050583 26.52012444 26.49213696 C26.54977496 27.85955568 26.55771552 29.22755281 26.54830933 30.59526062 C26.55878268 31.35201783 26.56925604 32.10877503 26.58004677 32.88846427 C26.61001242 35.42024247 26.61145613 37.95121105 26.61279297 40.4831543 C26.62803872 42.30016949 26.64489417 44.11717178 26.66323853 45.93415833 C26.70712399 50.86828554 26.72472596 55.80216488 26.73489141 60.73646522 C26.74218058 63.82129141 26.75466183 66.90605279 26.7688942 69.99085426 C26.81788621 80.75914992 26.84398658 91.52725291 26.85107422 102.2956543 C26.85834042 112.32251838 26.91809492 122.34815639 27.00188339 132.37464589 C27.07135166 140.99058545 27.10217218 149.60611943 27.10356629 158.22233707 C27.10515021 163.36509889 27.12254527 168.50661241 27.17956161 173.64908409 C27.23203353 178.4900041 27.23627906 183.32864628 27.20425034 188.1697216 C27.20062934 189.94100171 27.21393284 191.71241434 27.24588776 193.48340988 C27.47186813 206.82696032 27.47186813 206.82696032 23.80434036 212.24163246 C21.32451964 214.75443773 18.83081048 216.8983144 16 219 C14.94583584 219.92192738 13.89437387 220.84697051 12.84765625 221.77734375 C-14.50628601 242.99295395 -46.11331006 253.60488226 -80 259 C-80.80953125 259.13277344 -81.6190625 259.26554687 -82.453125 259.40234375 C-108.99128219 263.53153254 -138.64312212 262.65624666 -165 258 C-166.00369629 257.82307617 -167.00739258 257.64615234 -168.04150391 257.46386719 C-208.14646107 250.15599301 -246.54074675 234.87918357 -276 206 C-276.97762277 205.0609461 -277.95548938 204.122146 -278.93359375 203.18359375 C-284.46706574 197.8163953 -289.4782891 192.25014647 -294 186 C-293.34 185.67 -292.68 185.34 -292 185 C-289.5298567 186.41020512 -287.18313809 187.87389945 -284.8125 189.4375 C-254.44829855 208.85614924 -221.50063727 218.07789649 -186 223 C-185.20819336 223.1141626 -184.41638672 223.2283252 -183.60058594 223.34594727 C-175.39178748 224.3554754 -167.08424389 224.18605039 -158.82714844 224.18530273 C-156.16584721 224.18746678 -153.504977 224.20560766 -150.84375 224.22460938 C-134.55799046 224.27946707 -118.46457229 223.1015281 -102.5 219.75 C-100.92847168 219.42467285 -100.92847168 219.42467285 -99.32519531 219.09277344 C-70.21177705 212.87754931 -42.50437379 201.94377998 -20 182 C-19.175 181.31808594 -18.35 180.63617187 -17.5 179.93359375 C5.42620378 160.48214273 19.29429916 130.45939849 23 101 C23.51294976 94.59276182 23.48594308 88.17330255 23.4375 81.75 C23.43445862 80.89315613 23.43141724 80.03631226 23.42828369 79.15350342 C23.36135448 66.39976978 22.77559689 54.26777664 19 42 C18.79632812 41.29439941 18.59265625 40.58879883 18.3828125 39.86181641 C14.47633692 26.55990534 8.39457354 13.07427455 0 2 C0 1.34 0 0.68 0 0 Z " fill="#1C3455" transform="translate(958,798)"/>
<path d="M0 0 C-2.73568282 2.89061441 -5.48134856 5.13199539 -8.82421875 7.28515625 C-9.76128662 7.89230469 -10.69835449 8.49945312 -11.66381836 9.125 C-12.6616333 9.764375 -13.65944824 10.40375 -14.6875 11.0625 C-16.24126343 12.06603516 -16.24126343 12.06603516 -17.82641602 13.08984375 C-19.91883701 14.44089904 -22.01249199 15.79004527 -24.10742188 17.13720703 C-26.5613949 18.71754246 -29.00952299 20.30604653 -31.453125 21.90234375 C-61.67640944 41.62990577 -92.56682043 60.27455716 -124 78 C-125.05783691 78.5990918 -126.11567383 79.19818359 -127.20556641 79.81542969 C-153.85496665 94.90690638 -180.92187684 109.16901648 -208.20050049 123.08203125 C-209.8501265 123.92354586 -211.49907211 124.76639393 -213.14794922 125.609375 C-228.57571724 133.48063124 -244.241609 140.81842316 -260 148 C-260.69929626 148.31924438 -261.39859253 148.63848877 -262.11907959 148.96740723 C-300.49802547 166.48166417 -339.341711 182.60608428 -379 197 C-380.16665192 197.4241217 -380.16665192 197.4241217 -381.35687256 197.85681152 C-464.15324828 227.91919988 -550.74147756 252.15854324 -661 259 C-662.23073242 259.03504639 -662.23073242 259.03504639 -663.48632812 259.07080078 C-708.90919011 260.15446569 -766.93154693 256.60011609 -804 227 C-803.70985788 223.51829452 -803.27243676 222.25771045 -800.6875 219.8125 C-796.15680599 216.75691567 -793.58624606 215.49577827 -788 216 C-785.62742515 217.25146805 -783.52362061 218.51358545 -781.3125 220 C-760.84291165 232.92479014 -736.71608112 239.20254824 -713 243 C-712.07155273 243.15098145 -711.14310547 243.30196289 -710.18652344 243.45751953 C-674.42051972 248.95587533 -636.82846863 247.27192407 -601 243 C-600.29260681 242.9175 -599.58521362 242.835 -598.85638428 242.75 C-504.66650306 231.73580728 -412.29300943 202.39766443 -267.328125 141.52587891 C-264.06741859 140.03091008 -260.79960973 138.55236397 -257.53125 137.07421875 C-240.62287711 129.36059425 -223.98555956 121.09857086 -207.35800552 112.80171585 C-205.53213691 111.8910289 -203.70563274 110.98162798 -201.8789978 110.07247925 C-187.25664561 102.78621271 -172.78627523 95.29142179 -158.495224 87.37446594 C-154.85583276 85.3697484 -151.19815837 83.39933589 -147.54083252 81.42758179 C-135.96290165 75.18492972 -124.60150322 68.59542441 -113.26904297 61.91992188 C-109.81161843 59.88936276 -106.34615736 57.87308228 -102.87890625 55.859375 C-87.399567 46.85972016 -72.11135202 37.60914358 -57 28 C-55.95295898 27.33581055 -54.90591797 26.67162109 -53.82714844 25.98730469 C-50.5907324 23.93273145 -47.35767481 21.87295346 -44.125 19.8125 C-43.07948975 19.14984131 -42.03397949 18.48718262 -40.95678711 17.80444336 C-36.18257633 14.76041772 -31.48429816 11.6735847 -26.91796875 8.32421875 C-17.73503242 1.65030743 -11.76062744 -2.0420382 0 0 Z " fill="#A9DADD" transform="translate(1074,1052)"/>
<path d="M0 0 C11.88 0 23.76 0 36 0 C37 1 37 1 37.12304783 3.13768864 C37.12166514 4.56324149 37.12166514 4.56324149 37.12025452 6.01759338 C37.12162918 7.10439392 37.12300385 8.19119446 37.12442017 9.31092834 C37.11902725 11.11490334 37.11902725 11.11490334 37.11352539 12.95532227 C37.11367142 14.21367889 37.11381744 15.47203552 37.1139679 16.76852417 C37.11425585 20.22911253 37.10835949 23.68966652 37.10139394 27.15024686 C37.09516003 30.76308091 37.09455657 34.37591567 37.09336853 37.98875427 C37.09025532 44.83463508 37.08204208 51.6805 37.07201904 58.5263738 C37.06085757 66.31826589 37.05534737 74.11015873 37.05032361 81.90205681 C37.03985946 97.93471386 37.02226023 113.9673549 37 130 C25.9647031 135.51764845 12.33783702 131 0 131 C0 87.77 0 44.54 0 0 Z " fill="#1D3556" transform="translate(1137,583)"/>
<path d="M0 0 C0.04946866 4.07507572 0.08575189 8.15003497 0.10986328 12.2253418 C0.1199157 13.61144048 0.1335597 14.99751799 0.15087891 16.38354492 C0.17515952 18.3766975 0.18542031 20.37000533 0.1953125 22.36328125 C0.20578613 23.56251221 0.21625977 24.76174316 0.22705078 25.99731445 C0 29 0 29 -2 32 C-1.34 32.66 -0.68 33.32 0 34 C0.24609566 36.19826698 0.24609566 36.19826698 0.24050903 38.98599243 C0.24325836 40.04051102 0.24600769 41.0950296 0.24884033 42.1815033 C0.2380545 43.92398094 0.2380545 43.92398094 0.22705078 45.70166016 C0.22734283 46.92114853 0.22763489 48.1406369 0.22793579 49.39707947 C0.22677908 52.74612388 0.21673108 56.09492339 0.20278788 59.44392443 C0.19030698 62.94196893 0.18911211 66.4400165 0.18673706 69.93807983 C0.1805145 76.56437231 0.16409324 83.19059899 0.14403808 89.81686246 C0.12170316 97.35968231 0.11069172 104.90250526 0.10064721 112.44534993 C0.07972765 127.96360476 0.04453666 143.4817939 0 159 C-7.40845723 159.22020735 -14.81552823 159.43143991 -22.2265625 159.53710938 C-26.77621665 159.60229319 -31.32338476 159.67843794 -35.87109375 159.82983398 C-53.09533555 160.3879814 -67.21998758 160.68717185 -81.26812744 149.33926392 C-83.77574589 147.40011263 -86.47860107 145.98387948 -89.296875 144.546875 C-90.66090454 143.84062988 -90.66090454 143.84062988 -92.05249023 143.12011719 C-92.94266846 142.66797852 -93.83284668 142.21583984 -94.75 141.75 C-95.71301025 141.2540332 -96.67602051 140.75806641 -97.66821289 140.24707031 C-105.08173345 136.43812955 -112.52194957 132.6807042 -120 129 C-120 127.02 -120 125.04 -120 123 C-80.73 123 -41.46 123 -1 123 C-2.09869411 83.44701201 -3.43576365 52.04580512 -23 18 C-23.74634241 16.69285028 -24.49243973 15.38556059 -25.23828125 14.078125 C-25.81964844 13.06234375 -26.40101563 12.0465625 -27 11 C-26.44658936 11.21712646 -25.89317871 11.43425293 -25.32299805 11.65795898 C-22.09476159 12.13328839 -20.64694491 11.0714339 -17.83203125 9.47265625 C-16.85685547 8.92802734 -15.88167969 8.38339844 -14.87695312 7.82226562 C-13.86568359 7.24154297 -12.85441406 6.66082031 -11.8125 6.0625 C-9.7989798 4.92696088 -7.78469909 3.79276883 -5.76953125 2.66015625 C-4.87854736 2.15105713 -3.98756348 1.64195801 -3.06958008 1.11743164 C-1 0 -1 0 0 0 Z " fill="#1C3455" transform="translate(984,602)"/>
<path d="M0 0 C-0.296875 1.859375 -0.296875 1.859375 -1 4 C-4.20365645 6.217916 -6.74476094 7.68619024 -10.5 8.625 C-13.68144825 7.82963794 -15.30525681 6.02164799 -17.6796875 3.84765625 C-36.38175758 -11.04473289 -63.75918333 -15.41000134 -87 -16 C-88.20317871 -16.0306958 -88.20317871 -16.0306958 -89.43066406 -16.06201172 C-157.71379287 -17.53794216 -225.56108228 0.18379097 -289.94903564 21.32873535 C-293.04458811 22.34188555 -296.14575111 23.33755876 -299.24609375 24.3359375 C-361.89551443 44.67654041 -423.04356479 71.67068716 -481.53125 101.8203125 C-482.6140625 102.37460937 -483.696875 102.92890625 -484.8125 103.5 C-485.74707031 103.9846875 -486.68164062 104.469375 -487.64453125 104.96875 C-490 106 -490 106 -493 106 C-493 104.35 -493 102.7 -493 101 C-466.77979049 86.98575009 -440.16450603 74.06135808 -413 62 C-412.36255859 61.71640625 -411.72511719 61.4328125 -411.06835938 61.140625 C-341.85505554 30.36325101 -269.97765058 4.59574671 -196 -12 C-195.34100708 -12.14804077 -194.68201416 -12.29608154 -194.00305176 -12.4486084 C-135.53902677 -25.5072543 -50.37606507 -42.04224689 0 0 Z " fill="#A9DADD" transform="translate(1630,459)"/>
<path d="M0 0 C8.47190802 2.54157241 16.7987103 5.29206148 25.125 8.25 C26.15530334 8.61599304 26.15530334 8.61599304 27.2064209 8.98937988 C63.88226527 22.05871833 63.88226527 22.05871833 73 33 C74.03354508 36.10063523 74.13364996 38.31444068 74.125 41.5625 C74.12886719 43.01849609 74.12886719 43.01849609 74.1328125 44.50390625 C74 47 74 47 73 49 C68.67992055 48.2696922 64.6357659 46.93642838 60.51171875 45.49609375 C59.4569207 45.13198143 59.4569207 45.13198143 58.3808136 44.76051331 C56.1486479 43.98920292 53.9180662 43.21342234 51.6875 42.4375 C50.16872239 41.91181288 48.64984322 41.38641906 47.13085938 40.86132812 C43.41918692 39.57815573 39.70969248 38.28894295 36 37 C36 43.27 36 49.54 36 56 C13.57395093 54.31804632 13.57395093 54.31804632 6.390625 46.17578125 C2.24371047 39.96760626 0.62587608 33.48247839 1 26 C2.98 25.67 4.96 25.34 7 25 C4.69 24.01 2.38 23.02 0 22 C0 14.74 0 7.48 0 0 Z " fill="#1C3455" transform="translate(755,838)"/>
<path d="M0 0 C4.82508966 4.1638354 7.41284706 8.92555534 8.375 15.25 C8.4543925 17.38028006 8.48275926 19.51279622 8.47265625 21.64453125 C8.46943359 22.84658203 8.46621094 24.04863281 8.46289062 25.28710938 C8.45032227 27.15592773 8.45032227 27.15592773 8.4375 29.0625 C8.43298828 30.32771484 8.42847656 31.59292969 8.42382812 32.89648438 C8.41206251 36.0143711 8.39562272 39.13216133 8.375 42.25 C-12.27852136 36.80918255 -40.19830435 28.96166918 -54.625 12.25 C-55.1673466 8.68600805 -54.95721479 6.84220897 -53.1875 3.6875 C-40.53380272 -8.34894376 -14.40139381 -10.03002102 0 0 Z " fill="#1F3758" transform="translate(821.625,676.75)"/>
<path d="M0 0 C3.04456538 1.08453232 5.09813676 2.55899599 7.64550781 4.54736328 C13.29829034 8.79167658 19.14372769 12.35848293 25.31738281 15.78955078 C26.3827124 16.38525879 27.44804199 16.9809668 28.5456543 17.59472656 C39.22805335 23.45954225 50.28319464 28.33532021 61.56738281 32.91455078 C61.56738281 33.24455078 61.56738281 33.57455078 61.56738281 33.91455078 C57.54735651 34.01396174 53.52781318 34.08627141 49.50683594 34.13427734 C48.14114913 34.15430397 46.77554713 34.1815341 45.41015625 34.21630859 C43.4395118 34.2652151 41.46822299 34.28546425 39.49707031 34.30517578 C38.3135498 34.32612305 37.1300293 34.34707031 35.91064453 34.36865234 C29.67595387 33.52181982 25.6315603 29.20916417 21.27832031 24.98876953 C19.64104823 23.7347677 19.64104823 23.7347677 17.70800781 23.99658203 C14.786158 25.24956507 12.47762419 27.00116106 9.94238281 28.91455078 C3.11248937 34.04154854 3.11248937 34.04154854 -2.24951172 34.02807617 C-3.25039825 34.02800064 -4.25128479 34.02792511 -5.28250122 34.02784729 C-6.36586761 34.022686 -7.44923401 34.01752472 -8.56542969 34.01220703 C-9.67240204 34.01079208 -10.77937439 34.00937714 -11.91989136 34.00791931 C-15.46582712 34.00230851 -19.01170042 33.98975415 -22.55761719 33.97705078 C-24.95735586 33.97203717 -27.35709552 33.96747403 -29.75683594 33.96337891 C-35.64878444 33.95233556 -41.54069635 33.93558688 -47.43261719 33.91455078 C-44.6359087 31.04693642 -41.90696203 28.36053225 -38.63964844 26.03955078 C-37.93533691 25.53536621 -37.23102539 25.03118164 -36.50537109 24.51171875 C-35.7594873 23.98465332 -35.01360352 23.45758789 -34.24511719 22.91455078 C-32.64476879 21.77144478 -31.04451115 20.6282117 -29.44433594 19.48486328 C-28.62239746 18.89995117 -27.80045898 18.31503906 -26.95361328 17.71240234 C-22.80848709 14.75630034 -18.6836927 11.77215389 -14.55761719 8.78955078 C-13.80327393 8.24556641 -13.04893066 7.70158203 -12.27172852 7.14111328 C-11.5642749 6.63064453 -10.85682129 6.12017578 -10.12792969 5.59423828 C-9.50934082 5.14806152 -8.89075195 4.70188477 -8.25341797 4.2421875 C-6.36364633 2.91240337 -6.36364633 2.91240337 -4.51416016 1.18457031 C-2.43261719 -0.08544922 -2.43261719 -0.08544922 0 0 Z " fill="#213859" transform="translate(672.4326171875,796.08544921875)"/>
<path d="M0 0 C5.14722931 5.00811501 6.93656345 10.41544715 7.625 17.4375 C7.07067251 24.20029533 5.02505073 30.15093723 -0.125 34.75 C-6.0488735 39.17415869 -11.36054219 40.13370942 -18.6875 39.25 C-25.6971831 37.18541962 -29.98920993 32.46780496 -33.83203125 26.4609375 C-35.02337207 23.38194708 -34.98937754 20.66796105 -35 17.375 C-35.01675781 16.18132812 -35.03351563 14.98765625 -35.05078125 13.7578125 C-34.4416654 7.87624225 -31.63733274 3.54834739 -27.6875 -0.75 C-18.68498587 -7.05175989 -8.95494597 -5.83112761 0 0 Z " fill="#A9DADD" transform="translate(1664.6875,330.75)"/>
<path d="M0 0 C1 2 1 2 0.2578125 4.46875 C-0.11601562 5.4690625 -0.48984375 6.469375 -0.875 7.5 C-3.71087396 15.73191192 -5.4351847 23.69552438 -2 32 C-0.82734987 34.12008931 0.42227135 36.13530285 1.78125 38.140625 C3.02172072 40.03313801 4.02513625 41.96000734 5 44 C4.11699219 43.7834375 3.23398437 43.566875 2.32421875 43.34375 C-8.59310966 40.810836 -17.55708751 38.83613984 -27.6953125 44.48828125 C-31.10050394 46.72185597 -34.02557307 49.21955743 -37 52 C-36.86722656 51.27554687 -36.73445313 50.55109375 -36.59765625 49.8046875 C-36.2328912 47.80779855 -35.87103087 45.81037733 -35.51171875 43.8125 C-35.1510025 41.82993741 -34.7701957 39.85097849 -34.375 37.875 C-33.31504588 29.74868506 -33.47037026 21.09485245 -38.3125 14.10546875 C-39.50904496 12.70836654 -40.75092919 11.35034682 -42 10 C-42 9.34 -42 8.68 -42 8 C-41.37996094 8.2165625 -40.75992187 8.433125 -40.12109375 8.65625 C-30.52793312 11.67244024 -19.83310989 13.26150462 -10.4375 8.875 C-6.29229745 6.4598486 -3.16748317 3.58425727 0 0 Z " fill="#A9DADD" transform="translate(481,1136)"/>
<path d="M0 0 C3.55815343 2.78765305 5.83870201 5.59340718 6.46875 10.09375 C6.49511508 15.10311478 6.19494823 18.74659903 3.16796875 22.9453125 C-1.39889357 26.41612787 -4.9476815 27.60972782 -10.6875 27.3359375 C-14.93681804 26.56192693 -17.57909725 24.11183726 -20.64453125 21.2578125 C-22.86675546 16.93032325 -23.46095005 12.46541672 -22.27734375 7.72265625 C-20.30313213 3.04919068 -17.73262341 0.46238912 -13.046875 -1.4921875 C-8.4541413 -2.65859606 -4.14700306 -2.38740048 0 0 Z " fill="#A9DADD" transform="translate(1521.83203125,316.0546875)"/>
<path d="M0 0 C2.73155155 1.04441677 5.17757092 2.10736847 7.6875 3.625 C12.19499768 5.49603677 16.1799608 5.61815438 21 5 C24.3850877 3.56000293 24.3850877 3.56000293 27 2 C27.66 2.33 28.32 2.66 29 3 C28.57847656 3.6290625 28.15695312 4.258125 27.72265625 4.90625 C23.00561227 12.27593754 21.06397059 17.2340704 22.9375 26 C23.27846663 27.33676982 23.62791274 28.67155622 24 30 C23.29875 29.6390625 22.5975 29.278125 21.875 28.90625 C15.92639783 25.99660763 11.62925473 24.101118 5 25 C1.69898869 26.39924945 1.69898869 26.39924945 -1 28 C-1.66 28 -2.32 28 -3 28 C-1.97058944 24.75339747 -0.87798944 21.75128617 0.625 18.6875 C3.04976114 12.18473148 2.63594088 6.42510589 0 0 Z " fill="#A9DADD" transform="translate(398,1160)"/>
<path d="M0 0 C0.62648438 0.42152344 1.25296875 0.84304688 1.8984375 1.27734375 C2.71570313 1.82519531 3.53296875 2.37304688 4.375 2.9375 C5.18710937 3.48277344 5.99921875 4.02804687 6.8359375 4.58984375 C11.68196804 7.74763621 16.4436063 7.42606562 22 6.5 C22.66 6.335 23.32 6.17 24 6 C24 6.66 24 7.32 24 8 C23.34 8 22.68 8 22 8 C21.731875 8.556875 21.46375 9.11375 21.1875 9.6875 C20 12 20 12 18.4375 14.3125 C15.65979372 19.50560304 15.7607057 24.35432595 17 30 C14.4842729 28.83889519 12.43784718 27.5877546 10.1875 25.9375 C6.03295262 23.41218689 2.62496352 22.53405744 -2.22265625 23.39453125 C-4.16392954 23.87043423 -6.08461657 24.42874529 -8 25 C-7.38511719 24.12988281 -7.38511719 24.12988281 -6.7578125 23.2421875 C-1.26382516 15.27722021 0.34269061 9.63341388 0 0 Z " fill="#A9DADD" transform="translate(407,1106)"/>
<path d="M0 0 C3.26250137 1.89818262 5.38735287 3.29284844 6.6953125 6.9375 C7.3176423 10.43313973 7.20722094 12.50921357 5.8125 15.8125 C2.64448456 19.63596691 1.20643515 20.84433095 -3.875 21.5 C-7.25632262 21.3483145 -8.32708423 20.80969645 -11.4375 19 C-14.2055301 15.7593794 -14.95307689 14.07513109 -15.171875 9.92578125 C-14.82741841 6.06630171 -12.85585578 3.91925251 -10.3125 1.1875 C-6.87570186 -0.57734229 -3.72071524 -0.74271475 0 0 Z " fill="#A9DADD" transform="translate(1710,385)"/>
</svg>
